# xmcd CD database file
#
# Track frame offsets:
#	150
#	11552
#	24215
#	35640
#	55660
#	64647
#	77375
#	91385
#	104842
#	118112
#	129217
#	141285
#	166820
#	188920
#
# Disc length: 2634 seconds
#
# Revision: 2
# Processed by: cddbd v1.4b41PL1 Copyright (c) Steve Scherf et al.
# Submitted via: Feurio! 1.50.2ß - http://www.feurio.com
#
DISCID=af0a480e
DTITLE=Various Artist - Soul Ballads CD 2
DYEAR=1900
DGENRE=
TTITLE0=Wilson Pikett - If You Need Me
TTITLE1=Percy Sledge - When a Man Loves a Woman
TTITLE2=Otis Redding - This Arms of Mine
TTITLE3=Etta James - I'd Rather Go Blind
TTITLE4=Al Jarreau - Ain't No Sunshine
TTITLE5=Jackie Wilson - Doggin' around
TTITLE6=Ike and Tina Turner - If sho' ain't me
TTITLE7=Sam and Dave - Don't pull your love out on me baby
TTITLE8=Edddie Floyd - Konck on wood
TTITLE9=The Isley Brothers - This is the end
TTITLE10=Aretha Franklin - I never loved a man (the way I love you)
TTITLE11=James Brown - For your precious love
TTITLE12=Solomon Burke - Sidewalks Fences and Walls
TTITLE13=Jackie Wilson - Please tell me why
EXTD=
EXTT0=
EXTT1=
EXTT2=
EXTT3=
EXTT4=
EXTT5=
EXTT6=
EXTT7=
EXTT8=
EXTT9=
EXTT10=
EXTT11=
EXTT12=
EXTT13=
PLAYORDER=
